# xmcd
#
# Track frame offsets: 
#        150
#        16675
#        44322
#        66035
#        94532
#        137105
#        181497
#
# Disc length: 3021 seconds
#
# Revision: 0
# Processed by: cddbd v1.5.2PL0 Copyright (c) Steve Scherf et al.
# Submitted via: ExactAudioCopy v0.95b4
#
DISCID=520bcb07
DTITLE=Eric Clapton - 1997-10-28 - On Guitar and Vocals-ME! - Part6 - 
DTITLE=CD2
DYEAR=1997
DGENRE=Blues
TTITLE0=Tore Down
TTITLE1=Have You Ever Loved A Woman
TTITLE2=Cocaine
TTITLE3=Tearing Us Apart
TTITLE4=Old Love
TTITLE5=Sunshine of Your Love
TTITLE6=Everyday I Have The Blues
EXTD=
EXTT0=
EXTT1=
EXTT2=
EXTT3=
EXTT4=
EXTT5=
EXTT6=
PLAYORDER=
